<?xml version="1.0" encoding="utf-8"?>
<!-- Generator: Adobe Illustrator 25.4.1, SVG Export Plug-In . SVG Version: 6.00 Build 0)  -->
<svg version="1.1" id="Layer_1" xmlns="http://www.w3.org/2000/svg" xmlns:xlink="http://www.w3.org/1999/xlink" x="0px" y="0px"
	 viewBox="0 0 152.9 22.11" style="enable-background:new 0 0 152.9 22.11;" xml:space="preserve">
<style type="text/css">
	.st0{fill:#08353A;}
	.st1{fill:#0C2545;}
	.st2{fill:#FFFFFF;}
	.st3{fill:#F6E2EB;}
	.st4{fill:#664556;}
</style>
<g>
	<path class="st0" d="M14.7,6.94c-0.46,0-0.72-0.2-1.04-1.04c-0.32-0.78-0.67-1.68-1.68-2.26C10.9,3.03,9.22,3.03,6.84,3.03H6.52
		c-0.58,0-0.7,0.23-0.7,0.7v6.26c0,0.58,0.17,0.81,0.76,0.81c0.72,0,1.86,0,2.87-0.06c1.3-0.09,2.2-0.2,2.78-0.2
		c0.32,0,0.52,0.03,0.7,0.15c0.17,0.12,0.23,0.29,0.23,0.49c0,0.17-0.03,0.38-0.06,0.58c-0.06,0.41-0.06,0.81-0.38,1.04
		c-0.23,0.17-0.64,0.2-1.19,0.2c-1.16,0-2.12-0.15-3.8-0.15c-0.47,0-1.04,0-1.51,0.03c-0.26,0.03-0.41,0.15-0.41,0.41v3.1
		c0,2,0.15,2.58,0.32,2.98c0.17,0.41,0.49,0.75,0.99,1.04c0.35,0.2,0.64,0.38,0.64,0.75c0,0.44-0.43,0.64-1.01,0.64H1.02
		c-0.58,0-1.02-0.2-1.02-0.64c0-0.38,0.29-0.55,0.64-0.75c0.49-0.29,0.81-0.64,0.99-1.04c0.17-0.41,0.35-0.98,0.35-2.98V4.86
		c0-1.25-0.06-1.8-0.84-2.26C0.7,2.34,0.2,2.22,0.2,1.73c0-0.35,0.29-0.61,0.87-0.61h7.59c2.99,0,4.84-0.2,5.8-0.2
		c0.67,0,1.1,0.17,1.13,0.93l0.09,2.03c0.03,0.64,0.06,1.36,0.06,2.03C15.74,6.77,15.34,6.94,14.7,6.94z"/>
	<path class="st0" d="M24.93,21.18c0,0.44-0.43,0.64-0.96,0.64h-5.57c-0.52,0-0.96-0.2-0.96-0.64c0-0.35,0.26-0.55,0.61-0.75
		c0.46-0.26,0.84-0.61,1.01-1.01c0.2-0.44,0.35-1.07,0.35-3.07V5.67c0-1.04,0-1.68-0.23-2.12c-0.2-0.38-0.49-0.61-1.01-0.81
		c-0.35-0.15-0.78-0.32-0.78-0.7c0-0.35,0.2-0.58,0.87-0.73c1.01-0.2,2.12-0.52,2.87-0.81c0.55-0.2,0.81-0.35,1.16-0.35
		c0.41,0,0.69,0.2,0.69,0.87v15.31c0,2,0.15,2.64,0.35,3.04c0.2,0.41,0.55,0.75,0.99,1.04C24.67,20.66,24.93,20.83,24.93,21.18z"/>
	<path class="st0" d="M40.44,18.63c0,0.61-0.87,1.57-1.86,2.2c-1.25,0.81-2.87,1.28-4.49,1.28c-2.72,0-5.45-1.28-6.64-4.38
		c-0.35-0.96-0.55-2-0.55-3.04c0-2.9,1.39-5.89,4.2-7.45c1.04-0.58,2.23-0.87,3.42-0.87c1.51,0,2.96,0.46,4.09,1.39
		c1.54,1.27,2.12,3.01,2.12,4.26c0,1.3-0.38,2-2.38,2c0,0-7.25,0-7.39,0c-0.23,0-0.35,0.12-0.35,0.32c0,0.46,0.06,1.97,1.01,3.3
		c0.99,1.36,2.38,1.86,3.77,1.86c2.7,0,3.65-1.48,4.44-1.48C40.24,18.02,40.44,18.34,40.44,18.63z M30.93,12.22
		c0.06,0,4.03,0,4.03,0c1.45,0,2.14-0.35,2.14-1.42c0-1.22-1.01-2.64-2.9-2.64c-2.69,0-3.57,3.1-3.57,3.77
		C30.64,12.16,30.7,12.22,30.93,12.22z"/>
	<path class="st0" d="M59.78,20.25c0,0.38-0.23,0.61-0.87,0.75c-1.25,0.29-2.49,0.67-3.39,1.01c-0.14,0.06-0.35,0.12-0.58,0.12
		c-0.41,0-0.75-0.2-0.75-0.87v-1.65c0-0.06-0.03-0.12-0.09-0.12c-0.03,0-0.06,0-0.12,0.09c-1.13,1.68-2.87,2.55-4.75,2.55
		c-1.51,0-2.96-0.61-3.86-1.86c-0.72-1.01-0.96-2.32-0.96-3.97v-4.46c0-1.04,0-1.65-0.23-2.12c-0.2-0.41-0.52-0.61-1.01-0.78
		c-0.32-0.12-0.81-0.29-0.81-0.7c0-0.38,0.23-0.58,0.9-0.72c1.22-0.29,2.32-0.61,3.3-0.99c0.23-0.09,0.49-0.17,0.72-0.17
		c0.38,0,0.7,0.2,0.7,0.87v9.05c0,2.06,1.01,3.1,2.7,3.1c0.72,0,1.54-0.23,2.15-0.84c0.98-0.99,1.36-2.67,1.36-6.35
		c0-1.3-0.03-2-0.26-2.46c-0.17-0.38-0.52-0.61-1.02-0.78c-0.32-0.12-0.78-0.29-0.78-0.7c0-0.38,0.2-0.58,0.87-0.72
		c1.25-0.29,2.44-0.64,3.33-0.99c0.23-0.09,0.46-0.17,0.7-0.17c0.38,0,0.69,0.2,0.69,0.87v9.42c0,1.04,0.06,1.68,0.26,2.12
		c0.17,0.38,0.49,0.61,1.01,0.81C59.35,19.73,59.78,19.84,59.78,20.25z"/>
	<path class="st0" d="M73.61,8.74c0,0.9-0.41,1.54-1.16,1.54c-0.38,0-0.69-0.15-1.1-0.38c-0.41-0.23-0.69-0.35-1.07-0.35
		c-0.44,0-0.87,0.2-1.27,0.61c-0.64,0.64-1.48,1.77-1.48,6.17c0,2.03,0.15,2.64,0.35,3.07s0.55,0.75,0.99,1.01
		c0.38,0.23,0.61,0.41,0.61,0.75c0,0.44-0.41,0.64-0.96,0.64h-5.54c-0.55,0-0.96-0.2-0.96-0.64c0-0.35,0.26-0.55,0.61-0.75
		c0.44-0.26,0.78-0.58,0.99-1.01c0.2-0.44,0.35-1.07,0.35-3.07v-4.49c0-1.04-0.06-1.68-0.29-2.12c-0.2-0.38-0.46-0.58-0.98-0.78
		c-0.32-0.12-0.81-0.29-0.81-0.7c0-0.38,0.26-0.61,0.87-0.75c1.13-0.26,2.03-0.49,3.07-0.96c0.32-0.15,0.49-0.17,0.7-0.17
		c0.44,0,0.75,0.26,0.75,0.87c0,0,0,1.45,0,2.26c0,0.06,0,0.12,0.06,0.12c0.03,0,0.03-0.03,0.06-0.09c0.64-1.39,2.29-3.16,4.09-3.16
		c0.7,0,1.22,0.23,1.57,0.61C73.47,7.44,73.61,8.16,73.61,8.74z"/>
	<path class="st0" d="M97.7,10.68c0,0.38-0.38,0.46-0.75,0.7c-0.58,0.35-0.96,0.84-1.22,1.68c-0.41,1.28-0.61,2.67-1.33,4.09
		c-0.03,0.06-0.06,0.12-0.06,0.15c0,0.06,0.06,0.12,0.12,0.17c0.87,0.75,2.2,2.35,2.2,3.94c0,0.29-0.12,0.41-0.44,0.41h-1.86
		c-0.29,0-0.43-0.12-0.49-0.38c-0.17-0.64-0.55-1.19-1.01-1.68c-0.03-0.03-0.06-0.06-0.09-0.06c-0.06,0-0.09,0.03-0.12,0.06
		c-1.51,1.57-3.57,2.38-5.88,2.38c-3.48,0-7.07-2.09-7.07-5.88c0-2.17,1.33-4.17,3.54-4.9c0.09-0.03,0.09-0.09,0.09-0.12
		c0,0,0-0.03-0.03-0.09c-0.43-0.75-0.81-1.68-0.81-2.84c0-2.23,1.51-4.73,5.13-4.73c1.33,0,2.58,0.35,3.13,1.1
		c0.32,0.41,0.41,1.19,0.41,1.83c0,1.22-0.15,1.77-0.81,1.77c-0.7,0-0.84-0.7-1.33-1.57c-0.38-0.67-0.96-1.59-2.17-1.59
		c-1.25,0-2.12,1.01-2.12,2.44c0,2.17,2.41,4.09,4.41,5.59c1.42,1.07,2.84,2.2,3.83,3.01c0.15,0.12,0.2,0.17,0.26,0.17
		c0.09,0,0.15-0.15,0.17-0.23c0.29-0.72,0.43-1.48,0.43-2.15c0-1.27-0.61-1.97-1.16-2.32c-0.52-0.35-1.16-0.44-1.16-0.96
		c0-0.32,0.26-0.55,0.81-0.55h4.64C97.38,10.13,97.7,10.31,97.7,10.68z M91.7,18.8c0-0.06-0.06-0.09-0.09-0.12
		c-2.72-2.29-5.57-4.12-7.42-6.23c-0.06-0.06-0.09-0.09-0.12-0.09c-0.03,0-0.06,0-0.12,0.06c-0.9,0.78-1.36,1.88-1.36,3.07
		c0,2.61,2,4.99,5.13,4.99c1.42,0,2.81-0.52,3.88-1.54C91.67,18.89,91.7,18.86,91.7,18.8z"/>
	<path class="st0" d="M111.24,21.82h-6.38c-0.58,0-1.02-0.2-1.02-0.67c0-0.38,0.32-0.55,0.64-0.73c0.49-0.26,0.78-0.64,0.96-1.04
		c0.17-0.43,0.32-0.98,0.32-3.01V5.32c0-1.54,0-2.23-0.78-2.7c-0.49-0.32-0.99-0.41-0.99-0.9c0-0.35,0.29-0.61,0.87-0.61h6.84
		c2.72,0,5.04,0.03,6.73,1.3c1.19,0.87,1.68,2.18,1.68,3.39c0,0.84-0.23,1.65-0.67,2.32c-0.87,1.36-2.64,2.12-3.94,2.32
		c-0.15,0.03-0.2,0.09-0.2,0.17c0,0.09,0.09,0.15,0.17,0.15c1.86,0.2,3.1,0.84,3.89,1.51c1.16,0.98,1.65,2.32,1.65,3.62
		c0,1.07-0.35,2.15-0.96,2.96C118.72,20.63,116.28,21.82,111.24,21.82z M109.61,16.77c0,2.12,0.09,2.47,0.26,2.7
		c0.26,0.35,0.69,0.35,1.97,0.35c2,0,5.02-0.49,5.02-4.17c0-2.87-2.26-3.86-5.1-3.86c-0.7,0-1.39,0-1.83,0.03
		c-0.2,0-0.32,0.14-0.32,0.29V16.77z M111.41,9.81c2.38,0,4.58-0.87,4.58-3.54V6.13c-0.06-2.64-2.38-3.1-4.44-3.1h-1.48
		c-0.32,0-0.44,0.15-0.44,0.44v5.94c0,0.26,0.12,0.41,0.41,0.41H111.41z"/>
	<path class="st0" d="M136.75,18.63c0,0.61-0.87,1.57-1.86,2.2c-1.25,0.81-2.87,1.28-4.49,1.28c-2.72,0-5.45-1.28-6.64-4.38
		c-0.35-0.96-0.55-2-0.55-3.04c0-2.9,1.39-5.89,4.2-7.45c1.04-0.58,2.23-0.87,3.42-0.87c1.51,0,2.96,0.46,4.09,1.39
		c1.54,1.27,2.12,3.01,2.12,4.26c0,1.3-0.38,2-2.38,2c0,0-7.25,0-7.39,0c-0.23,0-0.35,0.12-0.35,0.32c0,0.46,0.06,1.97,1.01,3.3
		c0.99,1.36,2.38,1.86,3.77,1.86c2.7,0,3.65-1.48,4.44-1.48C136.55,18.02,136.75,18.34,136.75,18.63z M127.24,12.22
		c0.06,0,4.03,0,4.03,0c1.45,0,2.14-0.35,2.14-1.42c0-1.22-1.01-2.64-2.9-2.64c-2.69,0-3.57,3.1-3.57,3.77
		C126.95,12.16,127.01,12.22,127.24,12.22z"/>
	<path class="st0" d="M152.61,18.63c0,0.61-0.87,1.57-1.86,2.2c-1.25,0.81-2.87,1.28-4.49,1.28c-2.72,0-5.45-1.28-6.64-4.38
		c-0.35-0.96-0.55-2-0.55-3.04c0-2.9,1.39-5.89,4.2-7.45c1.04-0.58,2.23-0.87,3.42-0.87c1.51,0,2.96,0.46,4.09,1.39
		c1.54,1.27,2.12,3.01,2.12,4.26c0,1.3-0.38,2-2.38,2c0,0-7.25,0-7.39,0c-0.23,0-0.35,0.12-0.35,0.32c0,0.46,0.06,1.97,1.01,3.3
		c0.99,1.36,2.38,1.86,3.77,1.86c2.7,0,3.65-1.48,4.44-1.48C152.41,18.02,152.61,18.34,152.61,18.63z M143.1,12.22
		c0.06,0,4.03,0,4.03,0c1.45,0,2.14-0.35,2.14-1.42c0-1.22-1.01-2.64-2.9-2.64c-2.7,0-3.57,3.1-3.57,3.77
		C142.81,12.16,142.87,12.22,143.1,12.22z"/>
</g>
</svg>
